<?xml version="1.0"?>
<svg xmlns="http://www.w3.org/2000/svg" enable-background="new 0 0 24 24" height="512px" viewBox="0 0 24 24" width="512px" class=""><g><circle cx="12" cy="12" fill="#ffd54f" r="10.8" data-original="#FFD54F" class="" data-old_color="#ffd54f" style="fill:#F9DC5C"/><path d="m19.623 15.023c-.207.657-.477 1.26-.828 1.827h-13.59c-.351-.567-.621-1.17-.828-1.827-.063-.207-.027-.423.108-.594.126-.18.324-.279.54-.279h13.95c.216 0 .414.099.54.279.135.171.171.387.108.594z" fill="#fff" data-original="#FFF" class=""/><path d="m18.795 17.211c-1.422 2.331-3.969 3.798-6.795 3.798s-5.373-1.467-6.795-3.798z" fill="#e53935" data-original="#E53935" class="active-path" data-old_color="#e53935" style="fill:#ED254E"/><path d="m12 24c-6.617 0-12-5.383-12-12s5.383-12 12-12 12 5.383 12 12-5.383 12-12 12zm0-22.5c-5.79 0-10.5 4.71-10.5 10.5s4.71 10.5 10.5 10.5 10.5-4.71 10.5-10.5-4.71-10.5-10.5-10.5z" data-original="#000000" class="" style="fill:#000000"/><path d="m9.5 10.25c-.414 0-.75-.336-.75-.75 0-.689-.561-1.25-1.25-1.25s-1.25.561-1.25 1.25c0 .414-.336.75-.75.75s-.75-.336-.75-.75c0-1.517 1.233-2.75 2.75-2.75s2.75 1.233 2.75 2.75c0 .414-.336.75-.75.75z" data-original="#000000" class="" style="fill:#000000"/><path d="m18.5 10.25c-.414 0-.75-.336-.75-.75 0-.689-.561-1.25-1.25-1.25s-1.25.561-1.25 1.25c0 .414-.336.75-.75.75s-.75-.336-.75-.75c0-1.517 1.233-2.75 2.75-2.75s2.75 1.233 2.75 2.75c0 .414-.336.75-.75.75z" data-original="#000000" class="" style="fill:#000000"/><path d="m12 21.22c-3.904 0-7.307-2.511-8.467-6.248-.07-.228-.028-.475.113-.667s.366-.305.604-.305h15.5c.238 0 .463.113.604.305.142.192.184.439.113.667-1.16 3.737-4.563 6.248-8.467 6.248zm-6.656-5.72c1.203 2.561 3.764 4.22 6.656 4.22s5.453-1.659 6.656-4.22z" data-original="#000000" class="" style="fill:#000000"/><path d="m18.81 17.5h-13.62c-.414 0-.75-.336-.75-.75s.336-.75.75-.75h13.62c.414 0 .75.336.75.75s-.336.75-.75.75z" data-original="#000000" class="" style="fill:#000000"/></g> </svg>
