<?xml version="1.0" encoding="UTF-8" standalone="no"?>
<svg
   xmlns:dc="http://purl.org/dc/elements/1.1/"
   xmlns:cc="http://creativecommons.org/ns#"
   xmlns:rdf="http://www.w3.org/1999/02/22-rdf-syntax-ns#"
   xmlns:svg="http://www.w3.org/2000/svg"
   xmlns="http://www.w3.org/2000/svg"
   xmlns:sodipodi="http://sodipodi.sourceforge.net/DTD/sodipodi-0.dtd"
   xmlns:inkscape="http://www.inkscape.org/namespaces/inkscape"
   viewBox="0 0 128 128"
   enable-background="new 0 0 128 128"
   version="1.1"
   id="svg8"
   sodipodi:docname="react.svg"
   inkscape:version="0.92.4 (5da689c313, 2019-01-14)">
  <metadata
     id="metadata14">
    <rdf:RDF>
      <cc:Work
         rdf:about="">
        <dc:format>image/svg+xml</dc:format>
        <dc:type
           rdf:resource="http://purl.org/dc/dcmitype/StillImage" />
      </cc:Work>
    </rdf:RDF>
  </metadata>
  <defs
     id="defs12" />
  <sodipodi:namedview
     pagecolor="#ffffff"
     bordercolor="#666666"
     borderopacity="1"
     objecttolerance="10"
     gridtolerance="10"
     guidetolerance="10"
     inkscape:pageopacity="0"
     inkscape:pageshadow="2"
     inkscape:window-width="1366"
     inkscape:window-height="705"
     id="namedview10"
     showgrid="false"
     inkscape:zoom="1.3037281"
     inkscape:cx="64"
     inkscape:cy="35.2445"
     inkscape:window-x="-8"
     inkscape:window-y="-8"
     inkscape:window-maximized="1"
     inkscape:current-layer="g6" />
  <g
     fill="#61DAFB"
     id="g6">
    <circle
       cx="64"
       cy="47.5"
       r="9.3"
       id="circle2" />
    <path
       d="m 64,81.7 c 7.3,7.1 14.5,11.3 20.3,11.3 1.9,0 3.7,-0.4 5.2,-1.3 5.2,-3 7.1,-10.5 5.3,-21.2 -0.3,-1.9 -0.7,-3.8 -1.2,-5.8 2,-0.6 3.8,-1.2 5.6,-1.8 10.1,-3.9 15.7,-9.3 15.7,-15.2 0,-6 -5.6,-11.4 -15.7,-15.2 -1.8,-0.7 -3.6,-1.3 -5.6,-1.8 0.5,-2 0.9,-3.9 1.2,-5.8 C 96.5,14 94.6,6.4 89.4,3.4 87.9,2.5 86.1,2.1 84.2,2.1 78.5,2.1 71.2,6.3 63.9,13.4 56.7,6.3 49.5,2.1 43.7,2.1 c -1.9,0 -3.7,0.4 -5.2,1.3 -5.2,3 -7.1,10.5 -5.3,21.2 0.3,1.9 0.7,3.8 1.2,5.8 -2,0.6 -3.8,1.2 -5.6,1.8 -10.1,3.9 -15.7,9.3 -15.7,15.2 0,6 5.6,11.4 15.7,15.2 1.8,0.7 3.6,1.3 5.6,1.8 -0.5,2 -0.9,3.9 -1.2,5.8 -1.7,10.7 0.2,18.3 5.3,21.2 1.5,0.9 3.3,1.3 5.2,1.3 5.8,0.2 13,-4 20.3,-11 z M 58.4,68.2 c 1.8,0.1 3.7,0.1 5.6,0.1 1.9,0 3.8,0 5.6,-0.1 -1.8,2.4 -3.7,4.6 -5.6,6.7 -1.9,-2.1 -3.8,-4.3 -5.6,-6.7 z M 46,57.9 c 1,1.7 1.9,3.3 3,4.9 -3.1,-0.4 -6,-0.9 -8.8,-1.5 0.9,-2.7 1.9,-5.5 3.1,-8.3 0.8,1.6 1.7,3.3 2.7,4.9 z M 40.2,33.8 c 2.8,-0.6 5.7,-1.1 8.8,-1.5 -1,1.6 -2,3.2 -3,4.9 -1,1.7 -1.9,3.3 -2.7,5 C 42,39.3 41,36.5 40.2,33.8 Z m 5.5,13.7 c 1.3,-2.7 2.7,-5.4 4.3,-8.1 1.5,-2.6 3.2,-5.2 4.9,-7.8 3,-0.2 6,-0.3 9.1,-0.3 3.2,0 6.2,0.1 9.1,0.3 1.8,2.6 3.4,5.2 4.9,7.8 1.6,2.7 3,5.4 4.3,8.1 -1.3,2.7 -2.7,5.4 -4.3,8.1 -1.5,2.6 -3.2,5.2 -4.9,7.8 -3,0.2 -6,0.3 -9.1,0.3 -3.2,0 -6.2,-0.1 -9.1,-0.3 -1.8,-2.6 -3.4,-5.2 -4.9,-7.8 -1.6,-2.7 -3,-5.4 -4.3,-8.1 z m 39.1,-5.4 -2.7,-5 c -1,-1.7 -1.9,-3.3 -3,-4.9 3.1,0.4 6,0.9 8.8,1.5 -0.9,2.8 -1.9,5.6 -3.1,8.4 z m 0,10.8 c 1.2,2.8 2.2,5.6 3.1,8.3 -2.8,0.6 -5.7,1.1 -8.8,1.5 1,-1.6 2,-3.2 3,-4.9 0.9,-1.5 1.8,-3.2 2.7,-4.9 z m 2.3,34.7 c -0.8,0.5 -1.8,0.7 -2.9,0.7 -4.9,0 -11,-4 -17,-10 2.9,-3.1 5.7,-6.6 8.5,-10.5 4.7,-0.4 9.2,-1.1 13.4,-2.1 0.5,1.8 0.8,3.6 1.1,5.4 1.4,8.5 0.3,14.6 -3.1,16.5 z m 5.2,-52.7 c 11.2,3.2 17.9,8.1 17.9,12.6 0,3.9 -4.6,7.8 -12.7,10.9 -1.6,0.6 -3.4,1.2 -5.2,1.7 C 91,56 89.4,51.8 87.4,47.5 c 2,-4.3 3.7,-8.5 4.9,-12.6 z m -8,-28.2 c 1.1,0 2,0.2 2.9,0.7 3.3,1.9 4.5,7.9 3.1,16.5 -0.3,1.7 -0.7,3.5 -1.1,5.4 -4.2,-0.9 -8.7,-1.6 -13.4,-2.1 -2.7,-3.9 -5.6,-7.4 -8.5,-10.5 6,-5.9 12.1,-10 17,-10 z M 69.6,26.8 c -1.8,-0.1 -3.7,-0.1 -5.6,-0.1 -1.9,0 -3.8,0 -5.6,0.1 1.8,-2.4 3.7,-4.6 5.6,-6.7 1.9,2.1 3.8,4.4 5.6,6.7 z M 40.9,7.4 c 0.8,-0.5 1.8,-0.7 2.9,-0.7 4.9,0 11,4 17,10 -2.9,3.1 -5.7,6.6 -8.5,10.5 -4.7,0.4 -9.2,1.1 -13.4,2.1 C 38.4,27.5 38.1,25.7 37.8,23.9 36.4,15.4 37.5,9.4 40.9,7.4 Z M 35.7,60.1 C 24.5,56.9 17.8,52 17.8,47.5 c 0,-3.9 4.6,-7.8 12.7,-10.9 1.6,-0.6 3.4,-1.2 5.2,-1.7 1.3,4.1 2.9,8.3 4.9,12.6 -2,4.3 -3.7,8.6 -4.9,12.6 z m 2.1,11 c 0.3,-1.7 0.7,-3.5 1.1,-5.4 4.2,0.9 8.7,1.6 13.4,2.1 2.7,3.9 5.6,7.4 8.5,10.5 -6,5.9 -12.1,10 -17,10 -1.1,0 -2,-0.2 -2.9,-0.7 -3.4,-1.9 -4.5,-8 -3.1,-16.5 z"
       id="path4"
       inkscape:connector-curvature="0"
       sodipodi:nodetypes="csccccsccccscsccccscccccccsccccccccccscccccscccccsccccccccccccccsccccccsccccscccccscsccccsccccccsccccccccscc" />
    <text
       xml:space="preserve"
       style="font-style:normal;font-weight:normal;font-size:40px;line-height:1.25;font-family:sans-serif;letter-spacing:0px;word-spacing:0px;fill:#61dafb;fill-opacity:1;stroke:none"
       x="29.338938"
       y="119.94617"
       id="text823"><tspan
         sodipodi:role="line"
         id="tspan821"
         x="29.338938"
         y="119.94617"
         style="font-style:normal;font-variant:normal;font-weight:normal;font-stretch:normal;font-size:26.66666603px;font-family:'Open Sans';-inkscape-font-specification:'Open Sans';fill:#61dafb;fill-opacity:1">React</tspan></text>
  </g>
</svg>
