<?xml version="1.0" encoding="UTF-8" standalone="no"?>
<svg
   xmlns:dc="http://purl.org/dc/elements/1.1/"
   xmlns:cc="http://creativecommons.org/ns#"
   xmlns:rdf="http://www.w3.org/1999/02/22-rdf-syntax-ns#"
   xmlns:svg="http://www.w3.org/2000/svg"
   xmlns="http://www.w3.org/2000/svg"
   xmlns:sodipodi="http://sodipodi.sourceforge.net/DTD/sodipodi-0.dtd"
   xmlns:inkscape="http://www.inkscape.org/namespaces/inkscape"
   height="128"
   viewBox="0 0 128 128"
   width="128"
   version="1.1"
   id="svg12"
   sodipodi:docname="vuejs.svg"
   inkscape:version="0.92.4 (5da689c313, 2019-01-14)">
  <metadata
     id="metadata18">
    <rdf:RDF>
      <cc:Work
         rdf:about="">
        <dc:format>image/svg+xml</dc:format>
        <dc:type
           rdf:resource="http://purl.org/dc/dcmitype/StillImage" />
      </cc:Work>
    </rdf:RDF>
  </metadata>
  <defs
     id="defs16" />
  <sodipodi:namedview
     pagecolor="#ffffff"
     bordercolor="#666666"
     borderopacity="1"
     objecttolerance="10"
     gridtolerance="10"
     guidetolerance="10"
     inkscape:pageopacity="0"
     inkscape:pageshadow="2"
     inkscape:window-width="1366"
     inkscape:window-height="705"
     id="namedview14"
     showgrid="false"
     inkscape:zoom="1.84375"
     inkscape:cx="68.338983"
     inkscape:cy="44.192514"
     inkscape:window-x="-8"
     inkscape:window-y="-8"
     inkscape:window-maximized="1"
     inkscape:current-layer="svg12" />
  <g
     transform="matrix(.85771 0 0 .85771 9.1059 -7.6628)"
     id="g10">
    <path
       fill="none"
       d="m-2.3125e-8 8.9337 49.854 0.1586 14.167 24.47 14.432-24.47 49.547-0.1574-63.834 110.14zm126.98 0.6374-24.36 0.0207-38.476 66.052-38.453-66.052-24.749-0.0196 63.211 107.89zm-25.149-0.008-22.745 0.16758-15.053 24.647-14.817-24.647-22.794-0.1679 37.731 64.476zM25.997 9.3929l23.002 0.0087 15.036 24.958 14.983-24.956 22.982-0.0061-37.85 65.655"
       id="path4" />
    <path
       fill="#35495e"
       d="m25.997 9.3929 23.002 0.0087 15.036 24.958 14.983-24.956 22.982-0.0061-37.85 65.655z"
       id="path6" />
    <path
       fill="#41b883"
       d="m0.91068 9.5686 25.066-0.1711 38.151 65.658 37.852-65.654 25.11 0.0263-62.966 108.06z"
       id="path8" />
  </g>
  <text
     xml:space="preserve"
     style="font-style:normal;font-variant:normal;font-weight:normal;font-stretch:normal;font-size:40px;line-height:1.25;font-family:'Open Sans';-inkscape-font-specification:'Open Sans';letter-spacing:0px;word-spacing:0px;fill:#35495e;fill-opacity:1;stroke:none"
     x="27.661018"
     y="118.23729"
     id="text830"><tspan
       sodipodi:role="line"
       id="tspan828"
       x="27.661018"
       y="118.23729"
       style="font-style:normal;font-variant:normal;font-weight:normal;font-stretch:normal;font-size:26.66666603px;font-family:'Open Sans';-inkscape-font-specification:'Open Sans';fill:#35495e;fill-opacity:1">Vue.JS</tspan></text>
</svg>
